<svg xmlns="http://www.w3.org/2000/svg" width="160" height="48" viewBox="0 0 160 48">
  <defs>
    <linearGradient id="logoGradient" x1="0%" y1="0%" x2="100%" y2="0%">
      <stop offset="0%" stop-color="#FFD700"/>
      <stop offset="100%" stop-color="#FFA500"/>
    </linearGradient>
  </defs>
  <path fill="url(#logoGradient)" d="M12,24 C20,8 28,8 36,24 C44,40 52,40 60,24 C68,8 76,8 84,24 C92,40 100,40 108,24 C116,8 124,8 132,24 C140,40 148,40 156,24" stroke="none"/>
  <path fill="url(#logoGradient)" d="M12,28 C20,44 28,44 36,28 C44,12 52,12 60,28 C68,44 76,44 84,28 C92,12 100,12 108,28 C116,44 124,44 132,28 C140,12 148,12 156,28" stroke="none"/>
  <text x="80" y="42" font-family="Inter, sans-serif" font-size="14" font-weight="600" letter-spacing="1.5" text-anchor="middle" fill="url(#logoGradient)">CREATORSUPPORT</text>
</svg>
